<svg width="36" height="36" viewBox="0 0 36 36" fill="none" xmlns="http://www.w3.org/2000/svg">
<circle cx="18" cy="18" r="18" fill="#B7D3C1"/>
<path d="M23.6182 17.1721L15.2587 9.20714C15.1193 9.07418 14.9339 9 14.7412 9C14.5485 9 14.3632 9.07418 14.2237 9.20714L14.2147 9.21614C14.1469 9.2806 14.0929 9.35819 14.0559 9.44419C14.019 9.53019 14 9.6228 14 9.71639C14 9.80998 14.019 9.90259 14.0559 9.98859C14.0929 10.0746 14.1469 10.1522 14.2147 10.2166L22.0867 17.7166L14.2147 25.2136C14.1469 25.2781 14.0929 25.3557 14.0559 25.4417C14.019 25.5277 14 25.6203 14 25.7139C14 25.8075 14.019 25.9001 14.0559 25.9861C14.0929 26.0721 14.1469 26.1497 14.2147 26.2141L14.2237 26.2231C14.3632 26.3561 14.5485 26.4303 14.7412 26.4303C14.9339 26.4303 15.1193 26.3561 15.2587 26.2231L23.6182 18.2581C23.6918 18.1881 23.7503 18.1039 23.7903 18.0105C23.8303 17.9172 23.8509 17.8167 23.8509 17.7151C23.8509 17.6136 23.8303 17.5131 23.7903 17.4198C23.7503 17.3264 23.6918 17.2422 23.6182 17.1721Z" fill="#111111"/>
</svg>
